<?xml version="1.0" encoding="iso-8859-1"?>
<!-- Generator: Adobe Illustrator 18.0.0, SVG Export Plug-In . SVG Version: 6.00 Build 0)  -->
<!DOCTYPE svg PUBLIC "-//W3C//DTD SVG 1.1//EN" "http://www.w3.org/Graphics/SVG/1.1/DTD/svg11.dtd">
<svg version="1.1" id="Capa_1" xmlns="http://www.w3.org/2000/svg" xmlns:xlink="http://www.w3.org/1999/xlink" x="0px" y="0px"
	 viewBox="0 0 489.801 489.801" style="enable-background:new 0 0 489.801 489.801;" xml:space="preserve">
<g>
	<path d="M377.318,0H112.482C88.119,0,68.299,19.82,68.299,44.184v401.434c0,24.363,19.82,44.184,44.184,44.184h264.836
		c24.363,0,44.184-19.82,44.184-44.184V44.184C421.502,19.82,401.682,0,377.318,0z M377.318,481.301H112.482
		c-19.676,0-35.684-16.008-35.684-35.684v-40.766h24.359c2.348,0,4.25-1.902,4.25-4.25c0-2.348-1.902-4.25-4.25-4.25H76.799V44.184
		c0-19.676,16.008-35.684,35.684-35.684h264.836c19.676,0,35.684,16.008,35.684,35.684v38.684h-28.358
		c-2.348,0-4.25,1.902-4.25,4.25c0,2.348,1.902,4.25,4.25,4.25h28.358v354.25C413.002,465.293,396.994,481.301,377.318,481.301z"/>
	<path d="M366.65,250.66c0-17.232-13.197-31.25-29.42-31.25c-11.535,0-20.918-10.207-20.918-22.75v-2.172
		c0-12.545,9.383-22.75,20.918-22.75c16.223,0,29.42-14.02,29.42-31.25V86.9c0-17.232-14.02-31.25-31.25-31.25h-181
		c-17.232,0-31.25,14.018-31.25,31.25v53.588c0,17.23,13.197,31.25,29.418,31.25c11.535,0,20.92,10.205,20.92,22.75v2.172
		c0,12.543-9.385,22.75-20.92,22.75c-16.221,0-29.418,14.02-29.418,31.25V402.9c0,17.23,14.018,31.25,31.25,31.25h181
		c17.23,0,31.25-14.02,31.25-31.25V250.66z M358.15,402.9c0,12.543-10.207,22.75-22.75,22.75h-181
		c-12.545,0-22.75-10.207-22.75-22.75V250.66c0-12.543,9.385-22.75,20.918-22.75c16.223,0,29.42-14.02,29.42-31.25v-2.172
		c0-0.377-0.016-0.752-0.027-1.125h51.191c2.348,0,4.25-1.902,4.25-4.25c0-2.348-1.902-4.25-4.25-4.25h-52.6
		c-3.83-12.535-14.924-21.625-27.984-21.625c-11.535,0-20.918-10.207-20.918-22.75V86.9c0-12.545,10.205-22.75,22.75-22.75h181
		c12.543,0,22.75,10.205,22.75,22.75v53.588c0,12.543-9.385,22.75-20.92,22.75c-16.221,0-29.418,14.018-29.418,31.25v2.172
		c0,17.23,13.197,31.25,29.418,31.25c11.535,0,20.92,10.205,20.92,22.75V402.9z"/>
	<path d="M147.488,214.148c10.613,0,19.25-8.635,19.25-19.25c0-10.613-8.637-19.25-19.25-19.25c-10.615,0-19.25,8.637-19.25,19.25
		C128.238,205.514,136.873,214.148,147.488,214.148z M147.488,184.148c5.928,0,10.75,4.822,10.75,10.75
		c0,5.928-4.822,10.75-10.75,10.75s-10.75-4.822-10.75-10.75C136.738,188.971,141.561,184.148,147.488,184.148z"/>
	<path d="M342.313,175.648c-10.613,0-19.25,8.637-19.25,19.25c0,10.615,8.637,19.25,19.25,19.25c10.615,0,19.25-8.635,19.25-19.25
		C361.563,184.285,352.928,175.648,342.313,175.648z M342.313,205.648c-5.928,0-10.75-4.822-10.75-10.75
		c0-5.928,4.822-10.75,10.75-10.75s10.75,4.822,10.75,10.75C353.063,200.826,348.24,205.648,342.313,205.648z"/>
	<path d="M384.4,59.65c10.613,0,19.25-8.637,19.25-19.25c0-10.615-8.637-19.25-19.25-19.25c-10.615,0-19.25,8.635-19.25,19.25
		C365.15,51.014,373.785,59.65,384.4,59.65z M384.4,29.65c5.928,0,10.75,4.822,10.75,10.75s-4.822,10.75-10.75,10.75
		s-10.75-4.822-10.75-10.75S378.473,29.65,384.4,29.65z"/>
	<path d="M124.65,40.4c0-10.615-8.637-19.25-19.25-19.25c-10.615,0-19.25,8.635-19.25,19.25c0,10.613,8.635,19.25,19.25,19.25
		C116.014,59.65,124.65,51.014,124.65,40.4z M105.4,51.15c-5.928,0-10.75-4.822-10.75-10.75s4.822-10.75,10.75-10.75
		c5.928,0,10.75,4.822,10.75,10.75S111.328,51.15,105.4,51.15z"/>
	<path d="M384.4,430.15c-10.615,0-19.25,8.635-19.25,19.25c0,10.613,8.635,19.25,19.25,19.25c10.613,0,19.25-8.637,19.25-19.25
		C403.65,438.785,395.014,430.15,384.4,430.15z M384.4,460.15c-5.928,0-10.75-4.822-10.75-10.75s4.822-10.75,10.75-10.75
		s10.75,4.822,10.75,10.75S390.328,460.15,384.4,460.15z"/>
	<path d="M105.4,430.15c-10.615,0-19.25,8.635-19.25,19.25c0,10.613,8.635,19.25,19.25,19.25c10.613,0,19.25-8.637,19.25-19.25
		C124.65,438.785,116.014,430.15,105.4,430.15z M105.4,460.15c-5.928,0-10.75-4.822-10.75-10.75s4.822-10.75,10.75-10.75
		c5.928,0,10.75,4.822,10.75,10.75S111.328,460.15,105.4,460.15z"/>
	<path d="M244.9,218.65c-55.279,0-100.25,44.971-100.25,100.25c0,55.277,44.971,100.25,100.25,100.25
		c55.277,0,100.25-44.973,100.25-100.25C345.15,263.621,300.178,218.65,244.9,218.65z M244.9,410.65
		c-50.592,0-91.75-41.16-91.75-91.75c0-5.998,0.584-11.861,1.689-17.543h49.814c2.348,0,4.25-1.902,4.25-4.25
		c0-2.348-1.902-4.25-4.25-4.25H156.92c11.252-37.945,46.432-65.707,87.98-65.707c48.391,0,88.146,37.658,91.514,85.207h-20.766
		c-2.348,0-4.25,1.902-4.25,4.25c0,2.348,1.902,4.25,4.25,4.25h20.977c-0.068,3.209-0.299,6.377-0.689,9.498H291.65
		c-2.348,0-4.25,1.902-4.25,4.25c0,2.348,1.902,4.25,4.25,4.25h42.807C325.322,379.883,288.639,410.65,244.9,410.65z"/>
	<path d="M244.9,293.561c-13.973,0-25.338,11.367-25.338,25.34c0,13.971,11.365,25.338,25.338,25.338
		c13.971,0,25.338-11.367,25.338-25.338C270.238,304.928,258.871,293.561,244.9,293.561z M244.9,335.738
		c-9.285,0-16.838-7.555-16.838-16.838c0-9.285,7.553-16.84,16.838-16.84c9.283,0,16.838,7.555,16.838,16.84
		C261.738,328.184,254.184,335.738,244.9,335.738z"/>
	<path d="M340.65,131.035v-35c0-7.858-6.393-14.25-14.25-14.25h-163c-7.857,0-14.25,6.392-14.25,14.25v35
		c0,7.857,6.393,14.25,14.25,14.25h163C334.258,145.285,340.65,138.893,340.65,131.035z M157.65,131.035v-35
		c0-3.172,2.58-5.75,5.75-5.75h163c3.172,0,5.75,2.578,5.75,5.75v3.332h-98.998c-2.348,0-4.25,1.902-4.25,4.25
		c0,2.348,1.902,4.25,4.25,4.25h98.998v23.168c0,3.17-2.578,5.75-5.75,5.75h-163C160.23,136.785,157.65,134.205,157.65,131.035z"/>
</g>
<g>
</g>
<g>
</g>
<g>
</g>
<g>
</g>
<g>
</g>
<g>
</g>
<g>
</g>
<g>
</g>
<g>
</g>
<g>
</g>
<g>
</g>
<g>
</g>
<g>
</g>
<g>
</g>
<g>
</g>
</svg>
