<?xml version="1.0" encoding="iso-8859-1"?>
<!-- Generator: Adobe Illustrator 18.0.0, SVG Export Plug-In . SVG Version: 6.00 Build 0)  -->
<!DOCTYPE svg PUBLIC "-//W3C//DTD SVG 1.1//EN" "http://www.w3.org/Graphics/SVG/1.1/DTD/svg11.dtd">
<svg version="1.1" id="Capa_1" xmlns="http://www.w3.org/2000/svg" xmlns:xlink="http://www.w3.org/1999/xlink" x="0px" y="0px"
	 viewBox="0 0 256.556 256.556" style="enable-background:new 0 0 256.556 256.556;" xml:space="preserve">
<path d="M230.932,25.643C214.395,9.107,192.408,0,169.021,0c-23.386,0-45.373,9.107-61.912,25.645
	C90.571,42.184,81.463,64.171,81.463,87.557c-0.001,11.851,2.384,23.517,6.959,34.282L0.022,210.24l46.315,46.315l88.403-88.402
	c10.764,4.575,22.428,6.96,34.281,6.962c23.386,0,45.373-9.108,61.914-25.648c34.133-34.137,34.132-89.684-0.002-123.822
	L230.932,25.643z M220.329,138.86c-13.708,13.706-31.929,21.255-51.307,21.255c-13.033-0.002-25.781-3.474-36.866-10.04
	l-5.009-2.968l-16.64,16.641l3.713,3.713l-67.882,67.882L21.234,210.24l67.883-67.883l3.712,3.711l16.638-16.638l-2.966-5.009
	c-6.567-11.087-10.038-23.835-10.037-36.865c-0.001-19.38,7.547-37.601,21.252-51.306C131.42,22.547,149.641,15,169.021,15
	s37.601,7.547,51.305,21.25C248.612,64.541,248.613,110.572,220.329,138.86z M169.021,35.582c13.883,0,26.935,5.405,36.751,15.22
	l-10.605,10.607c-0.752-0.752-1.536-1.46-2.339-2.138c-6.656-5.62-14.993-8.689-23.807-8.689c-9.877,0-19.163,3.846-26.148,10.829
	c-6.23,6.231-9.955,14.297-10.686,22.98c-0.088,1.048-0.142,2.103-0.142,3.166h-15.001c0-13.884,5.405-26.937,15.221-36.753
	C142.086,40.988,155.138,35.582,169.021,35.582z"/>
<g>
</g>
<g>
</g>
<g>
</g>
<g>
</g>
<g>
</g>
<g>
</g>
<g>
</g>
<g>
</g>
<g>
</g>
<g>
</g>
<g>
</g>
<g>
</g>
<g>
</g>
<g>
</g>
<g>
</g>
</svg>
